<svg width="170" height="36" viewBox="0 0 170 36" fill="none" xmlns="http://www.w3.org/2000/svg">
<path d="M6.528 21.968H11.664V26H1.2V9.008H6.528V21.968ZM26.4446 19.112C26.4446 19.48 26.4206 19.832 26.3726 20.168H17.8046C17.8846 21.336 18.3726 21.92 19.2686 21.92C19.8446 21.92 20.2606 21.656 20.5166 21.128H26.1566C25.9646 22.088 25.5566 22.952 24.9326 23.72C24.3246 24.472 23.5486 25.072 22.6046 25.52C21.6766 25.952 20.6526 26.168 19.5326 26.168C18.1886 26.168 16.9886 25.888 15.9326 25.328C14.8926 24.768 14.0766 23.968 13.4846 22.928C12.9086 21.872 12.6206 20.64 12.6206 19.232C12.6206 17.824 12.9086 16.6 13.4846 15.56C14.0766 14.504 14.8926 13.696 15.9326 13.136C16.9886 12.576 18.1886 12.296 19.5326 12.296C20.8766 12.296 22.0686 12.576 23.1086 13.136C24.1646 13.68 24.9806 14.464 25.5566 15.488C26.1486 16.512 26.4446 17.72 26.4446 19.112ZM21.0446 17.84C21.0446 17.392 20.9006 17.056 20.6126 16.832C20.3246 16.592 19.9646 16.472 19.5326 16.472C18.5886 16.472 18.0366 16.928 17.8766 17.84H21.0446ZM34.5617 26.168C33.2017 26.168 31.9777 25.888 30.8897 25.328C29.8017 24.768 28.9457 23.968 28.3217 22.928C27.7137 21.872 27.4097 20.64 27.4097 19.232C27.4097 17.824 27.7137 16.6 28.3217 15.56C28.9457 14.504 29.8017 13.696 30.8897 13.136C31.9777 12.576 33.2017 12.296 34.5617 12.296C35.9217 12.296 37.1457 12.576 38.2337 13.136C39.3217 13.696 40.1697 14.504 40.7777 15.56C41.4017 16.6 41.7137 17.824 41.7137 19.232C41.7137 20.64 41.4017 21.872 40.7777 22.928C40.1697 23.968 39.3217 24.768 38.2337 25.328C37.1457 25.888 35.9217 26.168 34.5617 26.168ZM34.5617 21.56C35.0577 21.56 35.4737 21.368 35.8097 20.984C36.1457 20.584 36.3137 20 36.3137 19.232C36.3137 18.464 36.1457 17.888 35.8097 17.504C35.4737 17.104 35.0577 16.904 34.5617 16.904C34.0657 16.904 33.6497 17.104 33.3137 17.504C32.9777 17.888 32.8097 18.464 32.8097 19.232C32.8097 20 32.9697 20.584 33.2897 20.984C33.6257 21.368 34.0497 21.56 34.5617 21.56ZM52.8675 12.368C54.4195 12.368 55.6275 12.888 56.4915 13.928C57.3715 14.968 57.8115 16.376 57.8115 18.152V26H52.5075V18.824C52.5075 18.184 52.3315 17.68 51.9795 17.312C51.6435 16.928 51.1875 16.736 50.6115 16.736C50.0195 16.736 49.5555 16.928 49.2195 17.312C48.8835 17.68 48.7155 18.184 48.7155 18.824V26H43.3875V12.464H48.7155V14.528C49.1315 13.888 49.6835 13.368 50.3715 12.968C51.0755 12.568 51.9075 12.368 52.8675 12.368ZM59.4019 19.232C59.4019 17.808 59.6419 16.576 60.1219 15.536C60.6179 14.48 61.2899 13.68 62.1379 13.136C62.9859 12.576 63.9379 12.296 64.9939 12.296C65.8739 12.296 66.6339 12.48 67.2739 12.848C67.9139 13.2 68.4019 13.688 68.7379 14.312V12.464H74.0419V26H68.7379V24.152C68.4019 24.776 67.9139 25.272 67.2739 25.64C66.6339 25.992 65.8739 26.168 64.9939 26.168C63.9379 26.168 62.9859 25.896 62.1379 25.352C61.2899 24.792 60.6179 23.992 60.1219 22.952C59.6419 21.896 59.4019 20.656 59.4019 19.232ZM68.7379 19.232C68.7379 18.512 68.5539 17.952 68.1859 17.552C67.8179 17.152 67.3459 16.952 66.7699 16.952C66.1939 16.952 65.7219 17.152 65.3539 17.552C64.9859 17.952 64.8019 18.512 64.8019 19.232C64.8019 19.952 64.9859 20.512 65.3539 20.912C65.7219 21.312 66.1939 21.512 66.7699 21.512C67.3459 21.512 67.8179 21.312 68.1859 20.912C68.5539 20.512 68.7379 19.952 68.7379 19.232ZM81.7624 14.96C82.3064 14.176 82.9704 13.552 83.7544 13.088C84.5384 12.608 85.3544 12.368 86.2024 12.368V18.056H84.6904C83.6824 18.056 82.9384 18.232 82.4584 18.584C81.9944 18.936 81.7624 19.56 81.7624 20.456V26H76.4344V12.464H81.7624V14.96ZM86.9175 19.232C86.9175 17.808 87.1575 16.576 87.6375 15.536C88.1335 14.48 88.8055 13.68 89.6535 13.136C90.5015 12.576 91.4535 12.296 92.5095 12.296C93.3895 12.296 94.1415 12.48 94.7655 12.848C95.4055 13.2 95.8935 13.688 96.2295 14.312V8.24H101.558V26H96.2295V24.152C95.8935 24.776 95.4055 25.272 94.7655 25.64C94.1415 25.992 93.3895 26.168 92.5095 26.168C91.4535 26.168 90.5015 25.896 89.6535 25.352C88.8055 24.792 88.1335 23.992 87.6375 22.952C87.1575 21.896 86.9175 20.656 86.9175 19.232ZM96.2535 19.232C96.2535 18.512 96.0695 17.952 95.7015 17.552C95.3335 17.152 94.8615 16.952 94.2855 16.952C93.7095 16.952 93.2375 17.152 92.8695 17.552C92.5015 17.952 92.3175 18.512 92.3175 19.232C92.3175 19.952 92.5015 20.512 92.8695 20.912C93.2375 21.312 93.7095 21.512 94.2855 21.512C94.8615 21.512 95.3335 21.312 95.7015 20.912C96.0695 20.512 96.2535 19.952 96.2535 19.232ZM110.382 26.168C109.022 26.168 107.798 25.888 106.71 25.328C105.622 24.768 104.766 23.968 104.142 22.928C103.534 21.872 103.23 20.64 103.23 19.232C103.23 17.824 103.534 16.6 104.142 15.56C104.766 14.504 105.622 13.696 106.71 13.136C107.798 12.576 109.022 12.296 110.382 12.296C111.742 12.296 112.966 12.576 114.054 13.136C115.142 13.696 115.99 14.504 116.598 15.56C117.222 16.6 117.534 17.824 117.534 19.232C117.534 20.64 117.222 21.872 116.598 22.928C115.99 23.968 115.142 24.768 114.054 25.328C112.966 25.888 111.742 26.168 110.382 26.168ZM110.382 21.56C110.878 21.56 111.294 21.368 111.63 20.984C111.966 20.584 112.134 20 112.134 19.232C112.134 18.464 111.966 17.888 111.63 17.504C111.294 17.104 110.878 16.904 110.382 16.904C109.886 16.904 109.47 17.104 109.134 17.504C108.798 17.888 108.63 18.464 108.63 19.232C108.63 20 108.79 20.584 109.11 20.984C109.446 21.368 109.87 21.56 110.382 21.56Z" fill="black"/>
<path d="M120.072 12.296C120.952 12.296 121.712 12.48 122.352 12.848C122.992 13.2 123.48 13.688 123.816 14.312V12.464H129.12V25.76C129.12 27.024 128.888 28.176 128.424 29.216C127.96 30.256 127.208 31.088 126.168 31.712C125.144 32.336 123.824 32.648 122.208 32.648C120.032 32.648 118.304 32.136 117.024 31.112C115.76 30.104 115.04 28.728 114.864 26.984H120.096C120.24 27.688 120.816 28.04 121.824 28.04C122.448 28.04 122.936 27.88 123.288 27.56C123.64 27.24 123.816 26.64 123.816 25.76V24.152C123.48 24.776 122.992 25.272 122.352 25.64C121.712 25.992 120.952 26.168 120.072 26.168C119.016 26.168 118.064 25.896 117.216 25.352C116.368 24.792 115.696 23.992 115.2 22.952C114.72 21.896 114.48 20.656 114.48 19.232C114.48 17.808 114.72 16.576 115.2 15.536C115.696 14.48 116.368 13.68 117.216 13.136C118.064 12.576 119.016 12.296 120.072 12.296ZM123.816 19.232C123.816 18.512 123.632 17.952 123.264 17.552C122.896 17.152 122.424 16.952 121.848 16.952C121.272 16.952 120.8 17.152 120.432 17.552C120.064 17.952 119.88 18.512 119.88 19.232C119.88 19.952 120.064 20.512 120.432 20.912C120.8 21.312 121.272 21.512 121.848 21.512C122.424 21.512 122.896 21.312 123.264 20.912C123.632 20.512 123.816 19.952 123.816 19.232ZM144.617 19.112C144.617 19.48 144.593 19.832 144.545 20.168H135.977C136.057 21.336 136.545 21.92 137.441 21.92C138.017 21.92 138.433 21.656 138.689 21.128H144.329C144.137 22.088 143.729 22.952 143.105 23.72C142.497 24.472 141.721 25.072 140.777 25.52C139.849 25.952 138.825 26.168 137.705 26.168C136.361 26.168 135.161 25.888 134.105 25.328C133.065 24.768 132.249 23.968 131.657 22.928C131.081 21.872 130.793 20.64 130.793 19.232C130.793 17.824 131.081 16.6 131.657 15.56C132.249 14.504 133.065 13.696 134.105 13.136C135.161 12.576 136.361 12.296 137.705 12.296C139.049 12.296 140.241 12.576 141.281 13.136C142.337 13.68 143.153 14.464 143.729 15.488C144.321 16.512 144.617 17.72 144.617 19.112ZM139.217 17.84C139.217 17.392 139.073 17.056 138.785 16.832C138.497 16.592 138.137 16.472 137.705 16.472C136.761 16.472 136.209 16.928 136.049 17.84H139.217ZM148.942 11.384C148.014 11.384 147.27 11.136 146.71 10.64C146.15 10.144 145.87 9.52 145.87 8.768C145.87 8 146.15 7.368 146.71 6.872C147.27 6.36 148.014 6.104 148.942 6.104C149.854 6.104 150.59 6.36 151.15 6.872C151.71 7.368 151.99 8 151.99 8.768C151.99 9.52 151.71 10.144 151.15 10.64C150.59 11.136 149.854 11.384 148.942 11.384ZM151.63 26.936C151.63 30.632 149.774 32.48 146.062 32.48H144.286V27.944H145.318C145.67 27.944 145.918 27.872 146.062 27.728C146.222 27.584 146.302 27.352 146.302 27.032V12.464H151.63V26.936ZM153.269 19.232C153.269 17.808 153.509 16.576 153.989 15.536C154.485 14.48 155.157 13.68 156.005 13.136C156.853 12.576 157.805 12.296 158.861 12.296C159.741 12.296 160.501 12.48 161.141 12.848C161.781 13.2 162.269 13.688 162.605 14.312V12.464H167.909V26H162.605V24.152C162.269 24.776 161.781 25.272 161.141 25.64C160.501 25.992 159.741 26.168 158.861 26.168C157.805 26.168 156.853 25.896 156.005 25.352C155.157 24.792 154.485 23.992 153.989 22.952C153.509 21.896 153.269 20.656 153.269 19.232ZM162.605 19.232C162.605 18.512 162.421 17.952 162.053 17.552C161.685 17.152 161.213 16.952 160.637 16.952C160.061 16.952 159.589 17.152 159.221 17.552C158.853 17.952 158.669 18.512 158.669 19.232C158.669 19.952 158.853 20.512 159.221 20.912C159.589 21.312 160.061 21.512 160.637 21.512C161.213 21.512 161.685 21.312 162.053 20.912C162.421 20.512 162.605 19.952 162.605 19.232Z" fill="#F8C43C"/>
</svg>
